# xmcd
#
# Track frame offsets: 
#        150
#        24980
#        49755
#        53915
#        58485
#        67685
#        96980
#        112675
#        140120
#        143245
#        165020
#        203680
#        210745
#        223860
#        241185
#        264295
#        288300
#        307605
#
# Disc length: 4429 seconds
#
# Revision: 0
# Processed by: cddbd v1.5.2PL0 Copyright (c) Steve Scherf et al.
# Submitted via: ExactAudioCopy v0.95b4
#
DISCID=fb114b12
DTITLE=Stevie Ray Vaughan - A Tale Untold Vol 4 (Soul To Soul Sessions
DTITLE=)
DYEAR=1985
DGENRE=
TTITLE0=01 Life Without You (Take 24)
TTITLE1=02 Life Without You (Take 31)
TTITLE2=03 You've Got Me Floating
TTITLE3=04 Little Wing (Take 1)
TTITLE4=05 Little Wing (Take 2)
TTITLE5=06 Little Wing (Take 3)
TTITLE6=07 Third Stone From The Sun (Take 1)
TTITLE7=08 Third Stone From The Sun (Take2)
TTITLE8=09 Say What (Take 14 With Organ)
TTITLE9=10 Come On Part 3 (Take 4)
TTITLE10=11 Jam
TTITLE11=12 Empty Arms (Take 40 Special Intro)
TTITLE12=13 Rude Mood
TTITLE13=14 Pride And Joy
TTITLE14=15 Untitled Blues Jam
TTITLE15=16 Say What
TTITLE16=17 Don't Stop By The Creek Son
TTITLE17=18 Manic Depression
EXTD=
EXTT0=
EXTT1=
EXTT2=
EXTT3=
EXTT4=
EXTT5=
EXTT6=
EXTT7=
EXTT8=
EXTT9=
EXTT10=
EXTT11=
EXTT12=
EXTT13=
EXTT14=
EXTT15=
EXTT16=
EXTT17=
PLAYORDER=
